<?xml version="1.0" encoding="UTF-8" standalone="no"?>
<svg
   version="1.1"
   id="Layer_1"
   x="0px"
   y="0px"
   viewBox="0 0 2560 2560.0001"
   enable-background="new 0 0 2608.929 1260.043"
   xml:space="preserve"
   sodipodi:docname="eye.svg"
   width="2560"
   height="2560"
   inkscape:version="1.2 (dc2aedaf03, 2022-05-15)"
   xmlns:inkscape="http://www.inkscape.org/namespaces/inkscape"
   xmlns:sodipodi="http://sodipodi.sourceforge.net/DTD/sodipodi-0.dtd"
   xmlns="http://www.w3.org/2000/svg"
   xmlns:svg="http://www.w3.org/2000/svg"><defs
   id="defs1070" /><sodipodi:namedview
   id="namedview1068"
   pagecolor="#ffffff"
   bordercolor="#666666"
   borderopacity="1.0"
   inkscape:showpageshadow="2"
   inkscape:pageopacity="0.0"
   inkscape:pagecheckerboard="0"
   inkscape:deskcolor="#d1d1d1"
   showgrid="false"
   inkscape:zoom="0.38981513"
   inkscape:cx="2089.452"
   inkscape:cy="1316.0084"
   inkscape:window-width="2560"
   inkscape:window-height="1377"
   inkscape:window-x="-8"
   inkscape:window-y="-8"
   inkscape:window-maximized="1"
   inkscape:current-layer="Layer_1" />
<g
   id="g1065"
   transform="translate(-24.464,649.9785)">
	<path
   d="m 1304.464,23.481 c -706.924,0 -1280,606.54 -1280,606.54 0,0 573.075,606.541 1279.999,606.541 706.925,0 1280.001,-606.541 1280.001,-606.541 0,0 -573.075,-606.54 -1280,-606.54 z m 0,1137.659 c -293.329,0 -531.118,-237.79 -531.118,-531.119 0,-293.329 237.789,-531.119 531.118,-531.119 293.329,0 531.12,237.79 531.12,531.119 0,293.329 -237.791,531.119 -531.12,531.119 z"
   id="path1061" />
	<path
   d="m 1304.464,203.175 c -235.74,0 -426.846,191.106 -426.846,426.846 0,235.74 191.106,426.846 426.846,426.846 235.74,0 426.846,-191.105 426.846,-426.846 0,-235.741 -191.105,-426.846 -426.846,-426.846 z m 0,637.83 c -116.523,0 -210.984,-94.461 -210.984,-210.984 0,-116.523 94.461,-210.984 210.984,-210.984 116.523,0 210.984,94.461 210.984,210.984 0,116.523 -94.46,210.984 -210.984,210.984 z"
   id="path1063" />
</g>
<path
   style="fill:none;stroke:#000000;stroke-width:200;stroke-linecap:round;stroke-linejoin:miter;stroke-dasharray:none;stroke-opacity:1"
   d="M 100,2060 2460,500"
   id="path920" /></svg>
