<?xml version="1.0" encoding="UTF-8" standalone="no"?>
<svg
   id="svg2"
   viewBox="0 0 86 85.999802"
   version="1.0"
   sodipodi:docname="gear.svg"
   inkscape:version="1.2 (dc2aedaf03, 2022-05-15)"
   width="86"
   height="85.999802"
   xmlns:inkscape="http://www.inkscape.org/namespaces/inkscape"
   xmlns:sodipodi="http://sodipodi.sourceforge.net/DTD/sodipodi-0.dtd"
   xmlns="http://www.w3.org/2000/svg"
   xmlns:svg="http://www.w3.org/2000/svg"
   xmlns:rdf="http://www.w3.org/1999/02/22-rdf-syntax-ns#"
   xmlns:cc="http://creativecommons.org/ns#"
   xmlns:dc="http://purl.org/dc/elements/1.1/">
  <defs
     id="defs25" />
  <sodipodi:namedview
     id="namedview23"
     pagecolor="#ffffff"
     bordercolor="#666666"
     borderopacity="1.0"
     inkscape:showpageshadow="2"
     inkscape:pageopacity="0"
     inkscape:pagecheckerboard="true"
     inkscape:deskcolor="#d1d1d1"
     showgrid="false"
     inkscape:zoom="14.317073"
     inkscape:cx="42.990631"
     inkscape:cy="43.025554"
     inkscape:window-width="2560"
     inkscape:window-height="1377"
     inkscape:window-x="2552"
     inkscape:window-y="-8"
     inkscape:window-maximized="1"
     inkscape:current-layer="g3518" />
  <g
     id="g3518"
     transform="translate(-250.4,6.5158)">
    <path
       id="path58241"
       stroke-linejoin="round"
       d="m 293.4,-3.5158 c -2.74,0 -5.41,0.2872 -8,0.8125 v 6.1875 c -3.47,0.8389 -6.72,2.1847 -9.68,4 l -4.38,-4.375 c -2.24,1.4862 -4.29,3.2298 -6.19,5.125 -1.89,1.8948 -3.64,3.9448 -5.12,6.1878 l 4.37,4.375 c -1.81,2.967 -3.16,6.212 -4,9.687 h -6.18 c -0.53,2.585 -0.82,5.261 -0.82,8 0,2.739 0.29,5.415 0.82,8 h 6.18 c 0.84,3.475 2.19,6.72 4,9.688 l -4.37,4.375 c 1.48,2.242 3.23,4.292 5.12,6.187 1.9,1.895 3.95,3.639 6.19,5.125 l 4.38,-4.375 c 2.96,1.816 6.21,3.161 9.68,4 v 6.188 c 2.59,0.525 5.26,0.812 8,0.812 2.74,0 5.42,-0.287 8,-0.812 v -6.188 c 3.48,-0.839 6.72,-2.184 9.69,-4 l 4.38,4.375 c 2.24,-1.486 4.29,-3.23 6.18,-5.125 1.9,-1.895 3.64,-3.945 5.13,-6.187 l -4.38,-4.375 c 1.82,-2.968 3.16,-6.213 4,-9.688 h 6.19 c 0.53,-2.585 0.81,-5.261 0.81,-8 0,-2.739 -0.28,-5.415 -0.81,-8 h -6.19 c -0.84,-3.475 -2.18,-6.72 -4,-9.687 l 4.38,-4.375 c -1.49,-2.243 -3.23,-4.293 -5.13,-6.1878 -1.89,-1.8952 -3.94,-3.6388 -6.18,-5.125 l -4.38,4.375 c -2.97,-1.8153 -6.21,-3.1611 -9.69,-4 v -6.1875 c -2.58,-0.5253 -5.26,-0.8125 -8,-0.8125 z m 0,20 c 11.04,0 20,8.96 20,20 0,11.04 -8.96,20 -20,20 -11.04,0 -20,-8.96 -20,-20 0,-11.04 8.96,-20 20,-20 z"
       stroke-dashoffset="162"
       stroke="#2c2c2c"
       stroke-linecap="round"
       stroke-width="2"
       style="fill:none;stroke-width:6;stroke-dasharray:none" />
  </g>
  <metadata
     id="metadata20">
    <rdf:RDF>
      <cc:Work>
        <dc:format>image/svg+xml</dc:format>
        <dc:type
           rdf:resource="http://purl.org/dc/dcmitype/StillImage" />
        <cc:license
           rdf:resource="http://creativecommons.org/publicdomain/zero/1.0/" />
        <dc:publisher>
          <cc:Agent
             rdf:about="http://openclipart.org/">
            <dc:title>Openclipart</dc:title>
          </cc:Agent>
        </dc:publisher>
        <dc:date>2009-12-21T05:06:06</dc:date>
        <dc:description>Cogwheel.</dc:description>
        <dc:source>https://openclipart.org/detail/183178/Cogwheel-by-qubodup</dc:source>
        <dc:creator>
          <cc:Agent>
            <dc:title>qubodup</dc:title>
          </cc:Agent>
        </dc:creator>
        <dc:subject>
          <rdf:Bag>
            <rdf:li>cogwheel</rdf:li>
          </rdf:Bag>
        </dc:subject>
      </cc:Work>
      <cc:License
         rdf:about="http://creativecommons.org/publicdomain/zero/1.0/">
        <cc:permits
           rdf:resource="http://creativecommons.org/ns#Reproduction" />
        <cc:permits
           rdf:resource="http://creativecommons.org/ns#Distribution" />
        <cc:permits
           rdf:resource="http://creativecommons.org/ns#DerivativeWorks" />
      </cc:License>
    </rdf:RDF>
  </metadata>
</svg>
